# File created by Blade
# Date/Time:  Thu Sep 25 17:33:50 2014
# Frame Rate: 120.000 fps
#------------------------------------------------------
:FULLY-SPECIFIED
:DEGREES
718
root -7.400245 32.807113 -3.085792 33.167969 6.525095 12.473304
Spine -1.238349 0.521733 -4.921619
Head -24.588855 1.024762 1.569256
LeftShoulder 5.961762 8.272189 16.944684
LeftArm 67.483441 31.781430 -47.777924
LeftForeArm 38.314292 -0.000000 116.058601
LeftHand -34.637848 -0.000000 55.777141
LeftHandThumb1 -26.253704 0.000000 33.147579
RightShoulder -10.564586 16.145675 -24.551988
RightArm 15.330638 -36.320993 77.147674
RightForeArm -32.877333 -0.000000 126.037035
RightHand 3.826426 -0.000000 -48.466278
RightHandThumb1 -24.326973 -0.000000 -32.862282
LeftUpLeg -54.004893 -1.437196 -5.710409
LeftLeg 55.909551 -0.000000 -0.000000
LeftFoot -4.195950 7.665461 -27.761640
LeftToeBase -8.599808 -0.000000 0.000000
RightUpLeg -46.903665 -7.820699 -3.143611
RightLeg 29.861042 -0.000000 -0.000000
RightFoot -13.806885 -12.929403 -7.390016
RightToeBase -1.281878 -0.000000 0.000000
719
root -7.456474 32.817549 -3.197523 33.954181 7.082206 12.770327
Spine -1.074011 0.278098 -4.843584
Head -25.209749 0.363772 1.836454
LeftShoulder 6.243323 8.043435 16.865790
LeftArm 67.407965 31.544177 -47.785515
LeftForeArm 38.267855 -0.000000 116.078663
LeftHand -34.572469 -0.000000 55.626803
LeftHandThumb1 -26.253704 0.000000 33.147579
RightShoulder -10.538508 16.276006 -24.803981
RightArm 15.427213 -36.093023 77.024229
RightForeArm -32.996091 -0.000000 126.091358
RightHand 3.613932 -0.000000 -49.248759
RightHandThumb1 -24.326973 -0.000000 -32.862282
LeftUpLeg -56.242670 -1.561233 -5.820661
LeftLeg 59.721309 -0.000000 -0.000000
LeftFoot -4.066852 6.990559 -27.551004
LeftToeBase -8.397896 -0.000000 0.000000
RightUpLeg -47.840249 -8.361313 -3.007226
RightLeg 30.000915 -0.000000 -0.000000
RightFoot -13.860378 -12.796900 -6.828179
RightToeBase -0.928671 -0.000000 0.000000
720
root -7.520292 32.831811 -3.305085 34.780903 7.526031 13.009338
Spine -1.013169 -0.146923 -4.731206
Head -25.737095 -0.141642 1.982897
LeftShoulder 6.152373 8.158369 16.660657
LeftArm 67.629298 31.118610 -47.502603
LeftForeArm 38.155603 -0.000000 116.078630
LeftHand -34.655412 0.000000 55.799114
LeftHandThumb1 -26.253704 0.000000 33.147579
RightShoulder -10.273250 16.464713 -24.948255
RightArm 15.665351 -35.939664 76.677486
RightForeArm -33.028382 -0.000000 126.149684
RightHand 3.628851 -0.000000 -49.290344
RightHandThumb1 -24.326973 -0.000000 -32.862282
LeftUpLeg -58.471418 -1.527289 -5.935450
LeftLeg 63.591775 -0.000000 -0.000000
LeftFoot -3.956817 6.442251 -27.215892
LeftToeBase -8.603912 -0.000000 0.000000
RightUpLeg -48.798413 -8.805345 -2.833691
RightLeg 30.052825 -0.000000 -0.000000
RightFoot -13.888861 -12.573620 -6.175419
RightToeBase -0.560975 -0.000000 0.000000
721
root -7.581490 32.841209 -3.411670 35.578804 7.945268 13.207741
Spine -0.943976 -0.184847 -4.656892
Head -26.236346 -0.896728 2.389492
LeftShoulder 6.442579 7.943637 16.659441
LeftArm 67.615215 30.882664 -47.479161
LeftForeArm 38.094464 -0.000000 116.066289
LeftHand -34.727342 -0.000000 55.904755
LeftHandThumb1 -26.253704 0.000000 33.147579
RightShoulder -10.302153 16.430060 -25.111997
RightArm 15.907292 -35.733125 76.394253
RightForeArm -33.109854 -0.000000 126.170932
RightHand 3.619791 -0.000000 -49.692871
RightHandThumb1 -24.326973 -0.000000 -32.862282
LeftUpLeg -60.661980 -1.483968 -6.043620
LeftLeg 67.599436 -0.000000 -0.000000
LeftFoot -4.067531 6.118742 -27.003312
LeftToeBase -7.951773 -0.000000 0.000000
RightUpLeg -49.746436 -9.229206 -2.613474
RightLeg 30.111762 -0.000000 -0.000000
RightFoot -13.901475 -12.397413 -5.609305
RightToeBase -0.263568 -0.000000 0.000000
